<?xml version="1.0" encoding="UTF-8" standalone="no"?>
<!-- Generator: Gravit.io -->
<svg xmlns="http://www.w3.org/2000/svg" xmlns:xlink="http://www.w3.org/1999/xlink" style="isolation:isolate" viewBox="26 32 436 436" width="436" height="436"><g><path d="M 71.121 32 L 416.879 32 C 441.782 32 462 52.218 462 77.121 L 462 422.879 C 462 447.782 441.782 468 416.879 468 L 71.121 468 C 46.218 468 26 447.782 26 422.879 L 26 77.121 C 26 52.218 46.218 32 71.121 32 Z" style="stroke:none;fill:#00ADE5;stroke-miterlimit:10;"/><path d=" M 244 84.157 C 220.205 84.157 200.737 103.625 200.737 127.42 C 200.737 151.215 220.205 170.684 244 170.684 C 267.795 170.684 287.263 151.215 287.263 127.42 C 287.263 103.625 267.795 84.157 244 84.157 Z  M 205.135 169.891 C 156.565 186.237 121.42 232.147 121.42 286.053 C 121.42 297.965 131.14 307.685 143.052 307.685 C 154.964 307.685 164.684 297.965 164.684 286.053 C 164.684 277.205 166.126 268.56 168.938 260.362 C 172.01 272.331 177.922 283.435 186.344 292.809 L 186.344 390.606 C 186.344 404.523 197.665 415.843 211.581 415.843 C 225.519 415.843 236.818 404.523 236.818 390.606 L 236.818 310.951 C 241.606 311.405 246.423 311.405 251.211 310.951 L 251.211 390.606 C 251.211 404.523 262.502 415.843 276.448 415.843 C 290.364 415.843 301.685 404.523 301.685 390.606 L 301.685 292.73 C 310.004 283.503 315.966 272.4 319.062 260.369 C 321.874 268.56 323.316 277.205 323.316 286.053 C 323.316 298.195 332.805 307.685 344.919 307.685 C 356.594 307.66 366.155 298.399 366.551 286.731 C 366.58 286.5 366.58 286.269 366.58 286.053 C 366.58 232.139 331.428 186.23 282.865 169.891 C 272.281 179.664 258.406 185.096 244 185.105 C 229.594 185.096 215.719 179.664 205.135 169.891 Z " fill="rgb(255,255,255)"/></g></svg>